<?xml version="1.0" standalone="no"?>
<!DOCTYPE svg PUBLIC "-//W3C//DTD SVG 20010904//EN"
 "http://www.w3.org/TR/2001/REC-SVG-20010904/DTD/svg10.dtd">
<svg version="1.0" xmlns="http://www.w3.org/2000/svg"
 width="700.000000pt" height="586.000000pt" viewBox="0 0 700.000000 586.000000"
 preserveAspectRatio="xMidYMid meet">

<g transform="translate(0.000000,586.000000) scale(0.100000,-0.100000)"
fill="#000000" stroke="none">
<path d="M2840 5534 c-14 -2 -65 -9 -115 -15 -293 -37 -644 -170 -903 -342
-530 -355 -867 -875 -979 -1512 -25 -142 -25 -548 0 -690 123 -706 531 -1282
1144 -1613 331 -179 670 -264 1058 -265 490 -1 945 152 1336 448 l96 73 704
-705 c387 -387 716 -711 731 -719 73 -39 177 2 237 93 35 52 41 115 17 161 -8
15 -332 344 -719 731 l-705 704 73 96 c409 540 548 1227 380 1891 -68 271
-202 550 -375 780 -370 495 -928 813 -1542 879 -90 10 -380 13 -438 5z m365
-374 c694 -66 1286 -504 1548 -1146 85 -206 125 -396 134 -629 20 -533 -180
-1027 -568 -1400 -830 -798 -2176 -649 -2815 310 -278 417 -374 919 -270 1410
193 909 1050 1541 1971 1455z"/>
</g>
</svg>
