<?xml version="1.0" standalone="no"?>
<!DOCTYPE svg PUBLIC "-//W3C//DTD SVG 20010904//EN"
 "http://www.w3.org/TR/2001/REC-SVG-20010904/DTD/svg10.dtd">
<svg version="1.0" xmlns="http://www.w3.org/2000/svg"
 width="700.000000pt" height="594.000000pt" viewBox="0 0 700.000000 594.000000"
 preserveAspectRatio="xMidYMid meet">

<g transform="translate(0.000000,594.000000) scale(0.100000,-0.100000)"
fill="#000000" stroke="none">
<path d="M1950 5472 c-12 -9 -163 -285 -335 -612 l-313 -595 -309 -5 c-276 -4
-312 -7 -336 -23 -16 -10 -32 -29 -37 -43 -6 -15 -10 -195 -10 -424 l0 -400
29 -32 29 -33 134 -5 133 -5 172 -1410 c94 -775 172 -1416 172 -1423 1 -8 14
-27 30 -43 l29 -29 2160 0 c2153 0 2159 0 2185 20 14 11 29 31 33 43 4 12 84
657 178 1432 l171 1410 132 5 c129 5 133 6 160 33 l28 27 3 408 c2 389 1 408
-17 439 -13 21 -33 35 -58 42 -23 7 -154 11 -323 11 l-285 0 -310 587 c-170
322 -320 599 -333 615 -53 63 -172 19 -172 -64 0 -24 79 -182 294 -588 l295
-555 -990 -3 c-544 -1 -1434 -1 -1978 0 l-990 3 295 555 c215 407 294 564 294
588 0 49 -46 92 -98 92 -23 0 -49 -7 -62 -18z m-770 -1416 c0 -3 -25 -55 -55
-117 -30 -62 -55 -124 -55 -138 0 -36 26 -70 67 -88 31 -12 38 -12 71 4 32 16
48 38 121 176 l84 157 2096 -2 2095 -3 82 -155 c70 -133 87 -158 118 -173 66
-34 136 10 136 86 0 22 -20 71 -55 138 -30 57 -55 107 -55 112 0 10 358 9 364
-1 3 -5 2 -131 -1 -280 l-6 -272 -1720 0 c-1587 0 -1722 -1 -1739 -17 -22 -20
-23 -41 -1 -65 15 -17 78 -18 1585 -18 1490 0 1569 -1 1565 -17 -3 -10 -81
-642 -173 -1405 l-168 -1388 -2036 0 -2036 0 -170 1403 -170 1402 581 5 c319
3 586 9 593 13 15 10 16 59 0 75 -9 9 -189 12 -750 12 l-738 0 0 280 0 280
185 0 c102 0 185 -2 185 -4z"/>
<path d="M1949 2881 l-29 -29 0 -657 0 -657 29 -29 c40 -40 89 -40 133 0 l33
29 0 657 0 657 -33 29 c-44 40 -93 40 -133 0z"/>
<path d="M2939 2881 l-29 -29 0 -657 0 -657 29 -29 c55 -54 139 -29 161 49 14
50 14 1224 0 1274 -22 78 -106 103 -161 49z"/>
<path d="M3928 2881 l-33 -29 0 -657 0 -657 33 -29 c44 -40 93 -40 133 0 l29
29 0 657 0 657 -29 29 c-40 40 -89 40 -133 0z"/>
<path d="M4931 2896 c-51 -28 -50 -15 -51 -698 0 -473 3 -644 12 -663 25 -56
107 -72 155 -31 l28 24 3 649 c2 475 -1 655 -9 676 -21 50 -88 71 -138 43z"/>
<path d="M1968 1214 c-42 -22 -48 -43 -48 -168 0 -130 9 -158 55 -181 41 -19
49 -19 85 0 51 26 62 62 58 192 l-3 115 -33 29 c-36 32 -72 37 -114 13z"/>
<path d="M2964 1220 c-47 -19 -54 -45 -54 -198 l0 -144 29 -29 c40 -39 89 -40
132 -1 31 28 32 31 37 129 2 56 1 122 -3 149 -12 82 -72 122 -141 94z"/>
<path d="M3931 1203 c-36 -37 -45 -86 -39 -224 4 -99 4 -102 36 -130 44 -40
93 -40 133 0 l29 29 0 146 c0 136 -1 147 -23 171 -15 18 -36 28 -64 32 -37 5
-46 2 -72 -24z"/>
<path d="M4913 1195 l-35 -35 4 -125 c3 -121 4 -125 31 -152 40 -41 99 -39
138 5 28 32 29 35 29 147 0 126 -9 159 -51 181 -46 23 -78 17 -116 -21z"/>
</g>
</svg>
