<?xml version="1.0" standalone="no"?>
<!DOCTYPE svg PUBLIC "-//W3C//DTD SVG 20010904//EN"
 "http://www.w3.org/TR/2001/REC-SVG-20010904/DTD/svg10.dtd">
<svg version="1.0" xmlns="http://www.w3.org/2000/svg"
 width="458.000000pt" height="476.000000pt" viewBox="0 0 458.000000 476.000000"
 preserveAspectRatio="xMidYMid meet">

<g transform="translate(0.000000,476.000000) scale(0.100000,-0.100000)"
fill="#000000" stroke="none">
<path d="M2039 4450 c-469 -99 -769 -504 -769 -1040 0 -565 338 -1062 795
-1171 174 -41 380 -22 540 50 305 139 544 466 620 852 25 125 30 343 12 464
-70 456 -367 777 -786 850 -114 20 -305 18 -412 -5z m446 -184 c33 -9 103 -37
154 -62 78 -39 110 -62 182 -133 100 -99 154 -188 198 -327 90 -278 58 -624
-84 -891 -224 -423 -653 -575 -1020 -361 -98 57 -247 210 -305 312 -59 106
-106 225 -132 338 -18 76 -22 124 -22 268 0 214 18 302 96 460 45 91 64 117
143 196 115 115 218 171 385 210 75 18 325 12 405 -10z"/>
<path d="M1848 1895 c-236 -33 -426 -89 -598 -175 -464 -232 -734 -636 -757
-1132 -6 -126 -6 -126 20 -152 34 -34 85 -35 123 -3 26 23 28 30 35 144 22
351 168 640 423 837 194 150 388 233 671 288 93 18 158 22 427 25 197 3 355 1
419 -6 665 -72 1106 -424 1218 -972 7 -31 15 -109 20 -174 7 -112 9 -119 35
-142 37 -31 89 -31 121 2 23 22 25 32 25 112 0 241 -89 523 -232 730 -207 303
-583 523 -1028 604 -112 20 -162 23 -475 25 -255 2 -376 -1 -447 -11z"/>
</g>
</svg>
